<?xml version="1.0" encoding="UTF-8" standalone="no"?>
<!DOCTYPE svg PUBLIC "-//W3C//DTD SVG 1.1//EN" "http://www.w3.org/Graphics/SVG/1.1/DTD/svg11.dtd">
<svg width="100%" height="100%" viewBox="0 0 688 124" version="1.1" xmlns="http://www.w3.org/2000/svg" xmlns:xlink="http://www.w3.org/1999/xlink" xml:space="preserve" xmlns:serif="http://www.serif.com/" style="fill-rule:evenodd;clip-rule:evenodd;stroke-linejoin:round;stroke-miterlimit:1.41421;">
    <g transform="matrix(2,0,0,2,0,0)">
        <g transform="matrix(2,0,0,2,0,2)">
            <g transform="matrix(0.856999,0,0,0.856999,12.2981,2.09133)">
                <path d="M14.494,29L14.494,23.433C20.451,23.433 25.057,17.585 22.783,11.374C21.941,9.073 20.09,7.238 17.771,6.403C11.509,4.15 5.614,8.717 5.614,14.624C5.614,14.624 5.613,14.625 5.612,14.625L0,14.625C0,5.212 9.169,-2.117 19.114,0.962C23.46,2.308 26.913,5.733 28.27,10.043C31.374,19.907 23.985,29 14.494,29" style="fill:rgb(132,132,132);"/>
            </g>
            <g transform="matrix(0.856999,0,0,0.856999,12.2981,2.09133)">
                <path d="M14.507,23.447L8.91,23.447L8.91,17.898L8.911,17.897L14.507,17.897L14.507,23.447M8.909,27.712L4.611,27.712L4.609,27.711L4.609,23.447L8.91,23.447L8.91,27.711L8.909,27.712M4.613,23.447L1.009,23.447C1.007,23.447 1.006,23.446 1.006,23.446L1.006,19.873C1.006,19.873 1.007,19.871 1.009,19.871L4.61,19.871C4.611,19.871 4.613,19.872 4.613,19.872L4.613,23.447M43.281,9.636L44.93,9.636C46.764,9.636 48.275,9.994 49.42,10.7C50.691,11.461 51.336,12.907 51.336,15C51.336,17.155 50.69,18.667 49.415,19.494C48.317,20.213 46.816,20.578 44.953,20.578L43.281,20.578L43.281,9.636ZM51.605,8.562C49.945,7.42 47.879,6.841 45.466,6.841L40.212,6.841L40.212,23.373L45.466,23.373C47.873,23.373 49.94,22.762 51.607,21.557C52.514,20.919 53.226,20.027 53.725,18.906C54.221,17.792 54.473,16.478 54.473,15C54.473,13.539 54.221,12.242 53.725,11.143C53.226,10.039 52.513,9.171 51.605,8.562ZM58.13,6.638C57.625,6.638 57.19,6.815 56.84,7.163C56.485,7.498 56.305,7.923 56.305,8.425C56.305,8.926 56.484,9.357 56.837,9.707C57.19,10.057 57.625,10.235 58.13,10.235C58.635,10.235 59.07,10.057 59.423,9.707C59.777,9.357 59.956,8.925 59.956,8.425C59.956,7.923 59.776,7.499 59.423,7.166C59.07,6.815 58.635,6.638 58.13,6.638M56.625,23.373L59.579,23.373L59.579,11.729L56.625,11.729L56.625,23.373ZM69.532,19.579C69.016,20.16 68.353,20.442 67.506,20.442C66.659,20.442 65.999,20.16 65.491,19.579C64.984,19.002 64.727,18.235 64.727,17.302C64.727,16.354 64.984,15.578 65.491,14.996C65.993,14.42 66.671,14.128 67.506,14.128C68.352,14.128 69.015,14.412 69.532,14.997C70.046,15.579 70.307,16.355 70.307,17.302C70.307,18.235 70.046,19.001 69.532,19.579ZM70.307,12.702C69.416,11.916 68.421,11.458 67.346,11.458C65.715,11.458 64.36,12.017 63.318,13.12C62.263,14.213 61.727,15.62 61.727,17.302C61.727,18.946 62.254,20.348 63.295,21.473C64.345,22.561 65.708,23.112 67.346,23.112C68.485,23.112 69.464,22.798 70.261,22.177L70.261,22.445C70.261,23.411 70.001,24.162 69.486,24.679C68.973,25.194 68.26,25.455 67.369,25.455C66.005,25.455 65.151,24.924 64.11,23.529L62.099,25.446L62.153,25.521C62.587,26.126 63.253,26.718 64.131,27.281C65.01,27.841 66.115,28.126 67.415,28.126C69.168,28.126 70.587,27.589 71.632,26.532C72.682,25.469 73.215,24.046 73.215,22.304L73.215,11.729L70.307,11.729L70.307,12.702ZM75.743,23.373L78.697,23.373L78.697,11.729L75.743,11.729L75.743,23.373ZM77.249,6.638C76.744,6.638 76.309,6.815 75.958,7.163C75.604,7.498 75.424,7.923 75.424,8.425C75.424,8.926 75.603,9.357 75.956,9.707C76.309,10.057 76.744,10.235 77.249,10.235C77.753,10.235 78.189,10.057 78.542,9.707C78.895,9.357 79.074,8.925 79.074,8.425C79.074,7.923 78.894,7.499 78.542,7.166C78.189,6.815 77.753,6.638 77.249,6.638M85.172,8.583L82.264,8.583L82.264,11.729L80.575,11.729L80.575,14.4L82.264,14.4L82.264,19.236C82.264,20.75 82.569,21.833 83.171,22.454C83.774,23.079 84.845,23.396 86.354,23.396C86.834,23.396 87.317,23.38 87.789,23.349L87.922,23.341L87.922,20.672L86.909,20.725C86.206,20.725 85.736,20.602 85.513,20.361C85.287,20.116 85.172,19.598 85.172,18.821L85.172,14.4L87.922,14.4L87.922,11.729L85.172,11.729L85.172,8.583M101.774,23.373L104.728,23.373L104.728,6.841L101.774,6.841L101.774,23.373ZM134.573,19.209C134.044,19.797 133.504,20.306 133.087,20.571C132.679,20.831 132.163,20.963 131.555,20.963C130.685,20.963 129.985,20.649 129.415,20.001C128.848,19.357 128.56,18.529 128.56,17.54C128.56,16.55 128.844,15.723 129.404,15.084C129.966,14.441 130.663,14.128 131.532,14.128C132.484,14.128 133.487,14.715 134.347,15.722L136.299,13.866C135.026,12.222 133.402,11.458 131.464,11.458C129.842,11.458 128.436,12.044 127.285,13.199C126.141,14.346 125.56,15.806 125.56,17.54C125.56,19.273 126.14,20.737 127.284,21.892C128.428,23.047 129.835,23.633 131.464,23.633C133.603,23.633 135.329,22.717 136.493,21.04L134.573,19.209M140.241,16.097C140.383,15.541 140.642,15.077 141.012,14.716C141.412,14.326 141.933,14.128 142.561,14.128C143.277,14.128 143.831,14.33 144.208,14.729C144.558,15.099 144.755,15.559 144.796,16.097L140.241,16.097ZM146.697,13.356C146.278,12.777 145.708,12.311 145.001,11.971C144.296,11.63 143.475,11.458 142.56,11.458C140.911,11.458 139.562,12.061 138.549,13.252C137.565,14.434 137.067,15.903 137.067,17.619C137.067,19.383 137.614,20.844 138.692,21.96C139.765,23.07 141.201,23.633 142.959,23.633C144.951,23.633 146.586,22.834 147.818,21.258L147.885,21.173L145.957,19.336C145.778,19.55 145.526,19.793 145.294,20.009C145.003,20.282 144.729,20.493 144.436,20.638C143.994,20.856 143.499,20.963 142.945,20.963C142.126,20.963 141.449,20.724 140.93,20.253C140.445,19.813 140.162,19.219 140.087,18.485L147.914,18.485L147.94,17.415C147.94,16.659 147.836,15.929 147.631,15.248C147.428,14.569 147.113,13.93 146.697,13.356ZM152.797,18.923C153.132,18.692 153.606,18.575 154.204,18.575C154.915,18.575 155.67,18.716 156.447,18.996L156.447,20.138C155.805,20.73 154.947,21.03 153.897,21.03C153.386,21.03 152.988,20.918 152.715,20.695C152.446,20.477 152.316,20.199 152.316,19.848C152.316,19.449 152.473,19.146 152.797,18.923ZM158.042,12.601C157.147,11.843 155.909,11.458 154.364,11.458C153.381,11.458 152.462,11.672 151.63,12.09C150.861,12.477 150.106,13.117 149.626,13.956L149.656,13.992L151.547,15.788C152.327,14.556 153.193,14.128 154.342,14.128C154.959,14.128 155.471,14.292 155.865,14.616C156.257,14.938 156.447,15.346 156.447,15.865L156.447,16.43C155.714,16.209 154.984,16.097 154.273,16.097C152.803,16.097 151.607,16.44 150.718,17.117C149.818,17.802 149.362,18.782 149.362,20.029C149.362,21.123 149.747,22.012 150.508,22.672C151.276,23.31 152.235,23.633 153.36,23.633C154.485,23.633 155.537,23.184 156.492,22.414L156.492,23.373L159.401,23.373L159.401,15.888C159.401,14.47 158.944,13.365 158.042,12.601ZM170.766,12.829C169.943,11.919 168.787,11.458 167.329,11.458C166.157,11.458 165.205,11.791 164.493,12.45L164.493,11.729L161.596,11.729L161.596,23.373L164.55,23.373L164.55,16.951C164.55,16.069 164.762,15.369 165.179,14.869C165.595,14.37 166.168,14.128 166.929,14.128C167.598,14.128 168.106,14.345 168.48,14.79C168.856,15.237 169.046,15.854 169.046,16.623L169.046,23.373L172,23.373L172,16.623C172,15.011 171.585,13.734 170.766,12.829M92.816,18.923C93.151,18.692 93.625,18.575 94.223,18.575C94.935,18.575 95.688,18.716 96.466,18.996L96.466,20.138C95.824,20.73 94.966,21.03 93.916,21.03C93.404,21.03 93.007,20.918 92.734,20.695C92.465,20.477 92.335,20.199 92.335,19.848C92.335,19.449 92.492,19.146 92.816,18.923ZM98.061,12.601C97.165,11.843 95.928,11.458 94.383,11.458C93.4,11.458 92.481,11.672 91.649,12.09C90.88,12.477 90.125,13.117 89.645,13.956L89.675,13.992L91.566,15.788C92.345,14.556 93.212,14.128 94.36,14.128C94.977,14.128 95.49,14.292 95.884,14.616C96.275,14.938 96.466,15.346 96.466,15.865L96.466,16.43C95.733,16.209 95.003,16.097 94.292,16.097C92.822,16.097 91.625,16.44 90.737,17.117C89.837,17.802 89.381,18.782 89.381,20.029C89.381,21.123 89.765,22.012 90.527,22.672C91.295,23.31 92.254,23.633 93.379,23.633C94.504,23.633 95.556,23.184 96.511,22.414L96.511,23.373L99.42,23.373L99.42,15.888C99.42,14.47 98.963,13.365 98.061,12.601ZM115.446,9.581C112.378,9.581 109.882,12.056 109.882,15.1C109.882,18.143 112.378,20.618 115.446,20.618C118.515,20.618 121.011,18.143 121.011,15.1C121.011,12.056 118.515,9.581 115.446,9.581ZM115.446,23.622C110.708,23.622 106.854,19.799 106.854,15.1C106.854,10.4 110.708,6.577 115.446,6.577C120.184,6.577 124.039,10.4 124.039,15.1C124.039,19.799 120.184,23.622 115.446,23.622Z" style="fill:rgb(132,132,132);"/>
            </g>
        </g>
    </g>
</svg>
