<?xml version="1.0" encoding="UTF-8" standalone="no"?>
<!DOCTYPE svg PUBLIC "-//W3C//DTD SVG 1.1//EN" "http://www.w3.org/Graphics/SVG/1.1/DTD/svg11.dtd">
<svg width="100%" height="100%" viewBox="0 0 230 124" version="1.1" xmlns="http://www.w3.org/2000/svg" xmlns:xlink="http://www.w3.org/1999/xlink" xml:space="preserve" xmlns:serif="http://www.serif.com/" style="fill-rule:evenodd;clip-rule:evenodd;stroke-linejoin:round;stroke-miterlimit:1.41421;">
    <g transform="matrix(2,0,0,2,0,0)">
        <g transform="matrix(0.106302,0,0,0.106302,29.4904,7.91887)">
            <path d="M216.85,432.851C214.703,432.851 212.565,432.812 210.431,432.75L254.574,311.432L315.324,311.432C325.987,311.432 337.692,303.235 341.339,293.22L389.231,161.674C397.066,140.137 384.73,122.517 361.813,122.517L277.534,122.517L206.819,316.833L206.793,316.833L166.704,426.986C71.594,404.375 0.85,318.878 0.85,216.851C0.85,117.765 67.571,34.271 158.533,8.824L117.168,122.517L117.156,122.517L48.389,311.432L94.167,311.436L152.648,150.905L187.052,150.905L128.571,311.436L174.332,311.444L228.83,161.674C236.67,140.137 224.333,122.517 201.437,122.517L162.956,122.517L207.142,1.077C210.363,0.934 213.596,0.85 216.85,0.85C336.144,0.85 432.85,97.556 432.85,216.851C432.85,336.143 336.144,432.851 216.85,432.851ZM347.542,150.79L313.147,150.79L264.98,282.948L299.376,282.948L347.542,150.79Z" style="fill:rgb(133,133,133);fill-rule:nonzero;"/>
        </g>
    </g>
</svg>
