<?xml version="1.0" encoding="UTF-8" standalone="no"?>
<!DOCTYPE svg PUBLIC "-//W3C//DTD SVG 1.1//EN" "http://www.w3.org/Graphics/SVG/1.1/DTD/svg11.dtd">
<svg width="100%" height="100%" viewBox="0 0 314 124" version="1.1" xmlns="http://www.w3.org/2000/svg" xmlns:xlink="http://www.w3.org/1999/xlink" xml:space="preserve" xmlns:serif="http://www.serif.com/" style="fill-rule:evenodd;clip-rule:evenodd;stroke-linejoin:round;stroke-miterlimit:1.41421;">
    <g transform="matrix(2,0,0,2,0,0)">
        <g id="path4423" transform="matrix(0.254676,0,0,0.254676,36.1657,4.72173)">
            <path d="M88.799,84.354L88.799,132.476L73.48,132.476L73.48,71.989L105.105,72.02C118.538,72.02 123.114,81.492 123.114,90.097L123.114,132.476L107.823,132.476L107.823,90.176C107.823,86.572 105.957,84.354 101.457,84.354L88.799,84.354L88.799,84.354ZM192.963,83.631C187.727,83.631 183.675,86.323 181.982,89.977C180.98,92.171 180.635,93.852 180.517,96.538L204.084,96.538C203.781,89.977 200.806,83.631 192.963,83.631M180.517,106.964C180.517,114.799 185.388,120.566 194.084,120.566C200.85,120.566 204.213,118.691 208.125,114.799L217.586,123.833C211.528,129.814 205.171,133.446 193.971,133.446C179.307,133.446 165.274,125.45 165.274,102.146C165.274,82.235 177.526,70.963 193.627,70.963C209.946,70.963 219.375,84.16 219.375,101.446L219.375,106.964L180.517,106.964M152.343,132.4C139.863,132.4 134.568,123.713 134.568,115.133L134.568,55.508L149.863,55.508L149.863,71.989L161.393,71.989L161.393,84.354L149.863,84.354L149.863,114.174C149.863,117.688 151.522,119.639 155.171,119.639L161.393,119.639L161.393,132.4L152.343,132.4M59.85,63.63L44.426,63.63L44.426,48.978L59.85,48.978L59.85,63.63ZM59.889,133.112C48.339,132.002 44.41,124.996 44.41,116.912L44.427,71.989L59.889,71.989L59.889,133.112L59.889,133.112ZM243.718,131.819C232.192,130.708 228.281,123.713 228.281,115.64L228.281,46.893L243.718,46.893L243.718,131.82ZM297.683,56.828C283.693,-11.376 151.297,-15.694 65.96,36.257L65.96,41.993C151.211,-1.819 272.117,-1.561 283.133,61.259C286.818,82.031 275.113,103.688 254.208,116.136L254.208,132.422C279.37,123.217 305.175,93.367 297.683,56.828M142.559,176.16C83.662,181.605 22.288,173.056 13.701,127.033C9.497,104.346 19.833,80.296 33.544,65.357L33.544,57.369C8.861,79.013 -4.535,106.414 3.177,138.792C13.02,180.31 65.694,203.839 146.093,196.025C177.903,192.921 219.537,182.692 248.482,166.806L248.482,144.236C222.218,159.876 178.756,172.809 142.559,176.16" style="fill:rgb(132,132,132);fill-rule:nonzero;"/>
        </g>
        <g id="path4425" transform="matrix(0.254676,0,0,0.254676,36.1657,4.72173)">
            <path d="M261.562,51.458C261.562,50.71 261.125,50.472 260.126,50.472L259.161,50.472L259.161,52.59C259.301,52.59 260.002,52.616 260.126,52.616C261.125,52.616 261.562,52.282 261.562,51.582L261.562,51.458L261.562,51.458ZM263.066,56.711L261.923,56.711C261.82,56.711 261.729,56.646 261.685,56.559L260.126,53.916C260.098,53.862 259.963,53.798 259.91,53.798L259.209,53.798L259.209,56.419C259.209,56.559 259.113,56.711 258.929,56.711L257.895,56.711C257.766,56.711 257.637,56.559 257.637,56.419L257.637,49.788C257.637,49.404 257.786,49.244 258.11,49.194C258.475,49.146 259.467,49.113 260.002,49.113C261.901,49.113 263.05,49.674 263.05,51.458L263.05,51.582C263.05,52.686 262.5,53.269 261.648,53.554L263.265,56.288C263.276,56.344 263.313,56.419 263.313,56.484C263.313,56.591 263.249,56.711 263.066,56.711M260.352,47.917C257.539,47.917 255.264,50.239 255.264,53.036C255.264,55.837 257.539,58.123 260.352,58.123C263.151,58.123 265.448,55.837 265.448,53.036C265.448,50.239 263.151,47.917 260.352,47.917M260.352,59.177C256.934,59.177 254.207,56.419 254.207,53.036C254.207,49.659 256.934,46.893 260.352,46.893C263.733,46.893 266.512,49.659 266.512,53.036C266.512,56.419 263.733,59.177 260.352,59.177" style="fill:rgb(132,132,132);fill-rule:nonzero;"/>
        </g>
    </g>
</svg>
