<?xml version="1.0" encoding="UTF-8" standalone="no"?>
<!DOCTYPE svg PUBLIC "-//W3C//DTD SVG 1.1//EN" "http://www.w3.org/Graphics/SVG/1.1/DTD/svg11.dtd">
<svg width="100%" height="100%" viewBox="0 0 288 124" version="1.1" xmlns="http://www.w3.org/2000/svg" xmlns:xlink="http://www.w3.org/1999/xlink" xml:space="preserve" xmlns:serif="http://www.serif.com/" style="fill-rule:evenodd;clip-rule:evenodd;stroke-linejoin:round;stroke-miterlimit:1.41421;">
    <g transform="matrix(2,0,0,2,0,0)">
        <g transform="matrix(0.459529,0,0,0.457422,-110.324,-109.187)">
            <path d="M506.12,258L498.62,258C496.711,258.07 495.058,259.379 494.55,261.22L484.89,302.47C489.334,303.786 493.665,305.458 497.84,307.47L508.69,261.18C508.751,260.96 508.782,260.733 508.782,260.505C508.782,259.128 507.649,257.995 506.272,257.995C506.222,257.995 506.171,257.997 506.12,258ZM485.73,270.9L478.24,270.9C476.331,270.97 474.678,272.279 474.17,274.12L468.4,298.73C472.935,299.438 477.429,300.393 481.86,301.59L488.3,274.12C488.363,273.897 488.395,273.666 488.395,273.435C488.395,272.058 487.262,270.925 485.885,270.925C485.83,270.925 485.775,270.926 485.72,270.93L485.73,270.9ZM447.5,286.86L440,286.86C438.091,286.93 436.438,288.239 435.93,290.08L434.33,296.9C435.5,296.81 436.7,296.75 437.98,296.74C441.64,296.7 445.133,296.747 448.46,296.88L450.05,290.09C450.121,289.855 450.157,289.611 450.157,289.366C450.157,287.989 449.024,286.856 447.647,286.856C447.598,286.856 447.549,286.857 447.5,286.86ZM467.1,278.3L459.6,278.3C457.691,278.37 456.038,279.679 455.53,281.52L451.9,297C456.9,297.28 461.47,297.73 465.72,298.33L469.67,281.49C469.733,281.267 469.765,281.037 469.765,280.805C469.765,279.428 468.632,278.295 467.255,278.295C467.203,278.295 467.152,278.297 467.1,278.3Z" style="fill:rgb(168,168,168);fill-rule:nonzero;"/>
        </g>
        <g transform="matrix(0.459529,0,0,0.457422,-110.324,-109.187)">
            <path d="M293.36,313.78C293.901,311.776 295.695,310.347 297.77,310.27L305.2,310.27C305.204,310.27 305.209,310.27 305.213,310.27C307.111,310.27 308.673,311.832 308.673,313.73C308.673,313.777 308.672,313.823 308.67,313.87L308.49,319C308.42,321 308.32,324.22 308.26,326.2C308.26,326.2 308.18,329.11 308.18,330.35C307.99,334.07 307.81,337.11 307.56,341.14C308.43,339.14 309.48,336.55 310.66,333.83C311.59,331.6 312.89,328.5 313.51,327.07L319.51,313.56C320.481,311.636 322.417,310.377 324.57,310.27L331.94,310.27C331.994,310.267 332.048,310.265 332.102,310.265C333.605,310.265 334.842,311.502 334.842,313.005C334.842,313.267 334.804,313.528 334.73,313.78L326.24,350.54C325.699,352.544 323.905,353.973 321.83,354.05L319.17,354.05C319.113,354.054 319.056,354.055 318.999,354.055C317.534,354.055 316.329,352.85 316.329,351.385C316.329,351.105 316.373,350.827 316.46,350.56L322.92,325C323.41,323.08 323.14,323 322.33,324.79L310.71,350.71C309.725,352.625 307.791,353.877 305.64,353.99L304,353.99C304,353.99 304,353.99 304,353.99C302.041,353.99 300.43,352.378 300.43,350.42C300.43,350.41 300.43,350.4 300.43,350.39L300.67,325.1C300.67,323.1 300.37,323.1 299.97,325.03L294.68,350.47C294.187,352.473 292.412,353.916 290.35,353.99L287.69,353.99C287.636,353.993 287.582,353.995 287.528,353.995C286.025,353.995 284.788,352.758 284.788,351.255C284.788,350.993 284.826,350.732 284.9,350.48L293.36,313.78Z" style="fill:rgb(168,168,168);fill-rule:nonzero;"/>
        </g>
        <g transform="matrix(0.459529,0,0,0.457422,-110.324,-109.187)">
            <path d="M356.79,350.26C356.696,350.752 356.633,351.25 356.6,351.75C356.485,352.623 356.839,353.495 357.53,354.04L349.85,354.04C347.85,354.04 346.45,353.26 346.68,352.3C346.91,351.34 345.89,351.62 344.39,352.92C342.605,354.26 340.422,354.964 338.19,354.92C337.51,354.92 331.62,354.92 331.62,348.92C331.62,346.92 332.92,341.05 334.97,338.69C337.02,336.33 339.97,335.47 351.59,332.12C351.914,330.832 352.161,329.527 352.33,328.21C352.33,326.47 350.72,326.35 349.66,326.35C346.87,326.35 346.37,327.84 345.44,331.19L339.61,331.19C339.544,331.195 339.478,331.198 339.411,331.198C337.996,331.198 336.831,330.033 336.831,328.618C336.831,328.304 336.888,327.993 337,327.7C337.112,327.407 338.19,323.48 341.23,321.93C344.035,320.676 347.09,320.081 350.16,320.19C355.86,320.19 361.75,321.62 361.75,327.44L361.75,328.68C361.44,330.04 360.83,332.74 360.38,334.68L356.79,350.26ZM350.16,338.48C347.93,339.16 345.08,340.03 343.9,340.96C342.29,342.26 341.9,345.8 341.9,346.42C341.896,346.472 341.894,346.523 341.894,346.575C341.894,347.601 342.738,348.445 343.764,348.445C343.866,348.445 343.969,348.437 344.07,348.42L345.81,348.42C347.325,346.92 348.424,345.052 349,343L350.16,338.48Z" style="fill:rgb(168,168,168);fill-rule:nonzero;"/>
        </g>
        <g transform="matrix(0.459529,0,0,0.457422,-110.324,-109.187)">
            <path d="M377.37,327.44C380.1,322.23 382.14,321.05 387.37,320.25L385.81,326C385.3,327.91 384.26,329.45 383.51,329.42L382.83,329.42C377.37,329.42 376.38,331.78 374.96,337.85L372,350.53C371.459,352.534 369.665,353.963 367.59,354.04L365,354.04C364.946,354.043 364.892,354.045 364.838,354.045C363.335,354.045 362.098,352.808 362.098,351.305C362.098,351.043 362.136,350.782 362.21,350.53L368.27,324.31C368.813,322.307 370.607,320.88 372.68,320.8L375.28,320.8C375.335,320.797 375.39,320.795 375.445,320.795C376.943,320.795 378.175,322.027 378.175,323.525C378.175,323.791 378.136,324.055 378.06,324.31L377.37,327.44Z" style="fill:rgb(168,168,168);fill-rule:nonzero;"/>
        </g>
        <g transform="matrix(0.459529,0,0,0.457422,-110.324,-109.187)">
            <path d="M398.45,310.27C398.504,310.267 398.558,310.265 398.612,310.265C400.115,310.265 401.352,311.502 401.352,313.005C401.352,313.267 401.314,313.528 401.24,313.78L397.53,329.78C397.08,331.71 397.75,332.04 399,330.51L404.72,323.51C406.247,321.854 408.361,320.856 410.61,320.73L414.51,320.73C416.51,320.73 417.03,321.94 415.7,323.41L407.62,332.41C406.241,334.126 405.734,336.389 406.25,338.53L409.87,350.53C409.987,350.826 410.047,351.141 410.047,351.458C410.047,352.846 408.904,353.988 407.517,353.988C407.448,353.988 407.379,353.986 407.31,353.98L404.31,353.98C402.223,353.895 400.406,352.496 399.79,350.5L397,339.66C396.49,337.75 395.72,337.76 395.28,339.66L392.8,350.5C392.261,352.501 390.471,353.929 388.4,354.01L385.74,354.01C385.686,354.013 385.632,354.015 385.578,354.015C384.075,354.015 382.838,352.778 382.838,351.275C382.838,351.013 382.876,350.752 382.95,350.5L391.44,313.74C391.981,311.736 393.775,310.307 395.85,310.23L398.51,310.23L398.45,310.27Z" style="fill:rgb(168,168,168);fill-rule:nonzero;"/>
        </g>
        <g transform="matrix(0.459529,0,0,0.457422,-110.324,-109.187)">
            <path d="M441.6,343.31C440.98,345.79 440.3,348.7 438.25,350.93C436.2,353.16 432.98,354.93 427.15,354.93C425.47,354.93 420.83,354.68 417.91,352.39C416.48,351.27 415.18,349.54 415.18,346.01C415.18,341.61 418.34,329.39 419.4,326.91C420.52,324.24 423.12,320.03 432.17,320.03C436.17,320.03 443.89,320.77 443.89,328.15C443.852,329.572 443.664,330.987 443.33,332.37C442.83,334.79 442.33,337.02 441.72,339.81L429.46,339.81C427.383,339.889 425.582,341.308 425.02,343.31C424.836,344.158 424.742,345.023 424.74,345.89C424.741,346.232 424.806,346.571 424.93,346.89C425.553,347.76 426.595,348.234 427.66,348.13C430.45,348.13 430.73,346.87 430.73,346.87C431.253,344.867 433.041,343.434 435.11,343.36L441.62,343.36L441.6,343.31ZM433.6,333.7C433.992,332.211 434.283,330.698 434.47,329.17C434.505,328.572 434.328,327.981 433.97,327.5C433.341,326.892 432.483,326.576 431.61,326.63C428.61,326.63 427.89,330.16 427.89,330.16C427.837,330.38 427.81,330.607 427.81,330.833C427.81,332.402 429.101,333.693 430.67,333.693C430.716,333.693 430.763,333.692 430.81,333.69L433.6,333.69L433.6,333.7Z" style="fill:rgb(168,168,168);fill-rule:nonzero;"/>
        </g>
        <g transform="matrix(0.459529,0,0,0.457422,-110.324,-109.187)">
            <path d="M454,313.71C454.537,311.707 456.328,310.278 458.4,310.2L460.94,310.2C460.995,310.197 461.05,310.195 461.105,310.195C462.603,310.195 463.835,311.427 463.835,312.925C463.835,313.191 463.796,313.455 463.72,313.71L462.88,317.3C462.43,319.23 463.05,320.8 464.26,320.8C465.47,320.8 466.14,322.14 465.75,323.8C465.36,325.46 464.06,326.8 462.87,326.8C461.68,326.8 460.33,328.38 459.87,330.31L457.47,340.6C457.02,342.53 456.54,344.72 456.41,345.47L456.41,346C456.41,347.73 457.65,347.73 460.41,347.73L459.78,350.54C459.247,352.541 457.459,353.971 455.39,354.05C453.321,354.129 445.78,354.05 445.78,349.05C445.811,347.955 445.999,346.871 446.34,345.83L450.09,330.23C450.55,328.3 450.04,326.73 448.95,326.73C447.86,326.73 447.27,325.39 447.65,323.73C448.03,322.07 449.24,320.73 450.35,320.73C451.46,320.73 452.73,319.15 453.17,317.22L454,313.71Z" style="fill:rgb(168,168,168);fill-rule:nonzero;"/>
        </g>
        <g transform="matrix(0.459529,0,0,0.457422,-110.324,-109.187)">
            <path d="M493.5,329.05C493.5,332.52 490.83,343.56 489.9,346.41C488.72,349.88 486.8,354.78 476.9,354.78C469.46,354.78 464.69,352.3 464.69,345.78C464.69,342.18 467.48,331.21 468.04,329.48C469.09,325.94 471.2,319.93 480.75,319.93C485.69,319.94 493.5,320.75 493.5,329.05ZM483.7,330.35C483.824,329.928 483.888,329.49 483.89,329.05C483.891,329.018 483.892,328.986 483.892,328.955C483.892,327.638 482.808,326.555 481.492,326.555C481.401,326.555 481.31,326.56 481.22,326.57C478.55,326.57 478,328.86 477.68,330.35L475.4,340.11C474.95,342.04 474.47,344.17 474.33,344.86L474.33,345.54C474.327,345.588 474.326,345.636 474.326,345.685C474.326,347.007 475.414,348.095 476.736,348.095C476.824,348.095 476.912,348.09 477,348.08C479.67,348.08 479.89,347.08 479.89,347.08C480.35,345.15 481.07,342 481.51,340.08L483.7,330.35Z" style="fill:rgb(168,168,168);fill-rule:nonzero;"/>
        </g>
        <g transform="matrix(0.459529,0,0,0.457422,-110.324,-109.187)">
            <path d="M500.5,320C502.842,320 504.77,321.928 504.77,324.27C504.77,326.612 502.842,328.54 500.5,328.54C498.158,328.54 496.23,326.612 496.23,324.27C496.23,324.267 496.23,324.263 496.23,324.26C496.23,324.253 496.23,324.247 496.23,324.24C496.23,321.914 498.144,320 500.47,320C500.48,320 500.49,320 500.5,320ZM500.5,320.85C500.45,320.848 500.4,320.847 500.35,320.847C498.474,320.847 496.93,322.391 496.93,324.267C496.93,326.143 498.474,327.687 500.35,327.687C502.225,327.687 503.768,326.145 503.77,324.27C503.771,324.237 503.772,324.203 503.772,324.17C503.772,322.367 502.303,320.876 500.5,320.85ZM499.78,326.74L498.78,326.74L498.78,322C499.282,321.91 499.79,321.866 500.3,321.87C500.87,321.814 501.443,321.947 501.93,322.25C502.225,322.494 502.382,322.868 502.35,323.25C502.346,323.784 501.964,324.246 501.44,324.35C501.925,324.52 502.238,324.998 502.2,325.51C502.235,325.912 502.319,326.308 502.45,326.69L501.45,326.69C501.288,326.302 501.191,325.89 501.16,325.47C501.129,325.061 500.783,324.74 500.372,324.74C500.331,324.74 500.29,324.744 500.25,324.75L499.81,324.75L499.81,326.69L499.78,326.74ZM499.78,324L500.24,324C500.85,324 501.3,323.81 501.3,323.32C501.3,322.83 501.02,322.64 500.3,322.64C500.117,322.629 499.933,322.629 499.75,322.64L499.75,324L499.78,324Z" style="fill:rgb(168,168,168);fill-rule:nonzero;"/>
        </g>
    </g>
</svg>
